# xmcd CD database file
#
# Track frame offsets:
#	150
#	16868
#	33438
#	48683
#	66854
#	83045
#	97582
#	114396
#	132678
#	147057
#	159277
#	175320
#
# Disc length: 2568 seconds
#
# Revision: 1
# Processed by: cddbd v1.5.2PL0 Copyright (c) Steve Scherf et al.
# Submitted via: CDex 1.51
#
DISCID=950a060c
DTITLE=Per Gessle - Party Crasher
DYEAR=2008
DGENRE=Pop
TTITLE0=Silly Really
TTITLE1=The Party Pleaser
TTITLE2=Stuck Here With Me
TTITLE3=Sing Along
TTITLE4=Gut Feeling
TTITLE5=Perfect Excuse
TTITLE6=Breathe Life Into Me
TTITLE7=Hey, I Died, and Went To Heaven
TTITLE8=Kissing Is the Key
TTITLE9=Thai With a Twist
TTITLE10=I Didn`t Mean To Turn You On
TTITLE11=Doesn`t Make Sense
EXTD=YEAR: 2008
EXTT0=
EXTT1=
EXTT2=
EXTT3=
EXTT4=
EXTT5=
EXTT6=
EXTT7=
EXTT8=
EXTT9=
EXTT10=
EXTT11=
PLAYORDER=
